<?xml version="1.0" standalone="no"?>
<!DOCTYPE svg PUBLIC "-//W3C//DTD SVG 20010904//EN"
 "http://www.w3.org/TR/2001/REC-SVG-20010904/DTD/svg10.dtd">
<svg version="1.0" xmlns="http://www.w3.org/2000/svg"
 width="1024.000000pt" height="1024.000000pt" viewBox="0 0 1024.000000 1024.000000"
 preserveAspectRatio="xMidYMid meet">
<metadata>
Created by potrace 1.11, written by Peter Selinger 2001-2013
</metadata>
<g transform="translate(0.000000,1024.000000) scale(0.100000,-0.100000)"
fill="#000000" stroke="none">
<path d="M6260 7966 c0 -4 12 -11 26 -16 15 -6 22 -15 18 -21 -4 -7 -1 -10 7
-7 8 3 13 11 11 17 -2 9 3 9 18 1 11 -6 26 -8 33 -4 7 4 8 3 4 -2 -5 -5 -19
-9 -30 -9 -17 0 -22 -6 -21 -25 2 -39 3 -42 14 -35 6 3 10 -1 10 -9 0 -9 -6
-15 -12 -13 -10 1 -14 -21 -16 -80 -2 -69 0 -83 13 -83 11 0 15 -11 15 -40 0
-29 -4 -40 -15 -40 -12 0 -15 -17 -15 -90 0 -49 4 -90 9 -90 5 0 11 -13 13
-30 3 -20 0 -30 -9 -30 -10 0 -13 -35 -13 -169 0 -153 2 -170 18 -174 16 -4
16 -5 0 -6 -11 -1 -15 -6 -12 -15 3 -8 -8 -34 -24 -58 -16 -24 -32 -54 -36
-68 -4 -14 11 5 35 43 l42 67 268 0 c148 0 269 -2 269 -5 0 -3 -11 -22 -24
-43 -13 -20 -95 -158 -183 -307 -183 -308 -522 -879 -689 -1161 l-114 -190 0
-387 0 -387 -250 0 -250 0 0 388 0 388 -115 189 c-123 204 -183 304 -202 338
-9 15 -13 17 -13 7 0 -9 7 -25 15 -38 14 -19 14 -25 0 -53 -9 -17 -14 -33 -11
-37 3 -3 6 -2 6 2 0 4 24 -39 54 -96 29 -56 68 -128 86 -158 55 -91 128 -238
122 -244 -9 -10 -20 -7 -25 7 -2 6 -3 -1 -1 -16 2 -17 0 -26 -6 -22 -12 7 -80
-16 -80 -27 0 -4 5 -8 11 -8 5 0 7 -5 3 -11 -4 -8 -9 -7 -14 2 -6 9 -16 4 -35
-19 -30 -36 -42 -40 -47 -14 -3 14 -10 10 -38 -21 -23 -25 -36 -33 -41 -25 -5
8 -16 1 -34 -20 -30 -36 -42 -40 -47 -14 -3 14 -7 13 -29 -10 -22 -24 -35 -28
-78 -28 -36 0 -51 -4 -51 -13 0 -8 -18 -20 -40 -27 -22 -7 -40 -19 -40 -27 0
-7 -8 -13 -19 -13 -10 0 -24 -7 -31 -15 -7 -8 -16 -15 -21 -15 -5 0 -9 7 -9
15 0 11 -12 15 -47 15 -44 -1 -51 -4 -78 -40 l-30 -39 -105 -3 c-90 -3 -101
-5 -80 -15 17 -8 20 -12 8 -12 -9 -1 -23 6 -32 14 -20 20 -60 20 -52 0 3 -9 0
-15 -9 -15 -8 0 -15 8 -15 18 0 13 -2 14 -9 3 -7 -10 -9 -11 -13 0 -3 10 -15
8 -55 -6 l-51 -18 36 -18 c19 -10 39 -16 44 -13 5 3 7 0 6 -8 -2 -7 4 -12 14
-10 9 1 20 -3 24 -9 5 -8 3 -9 -7 -4 -8 5 2 -9 21 -31 19 -23 40 -38 45 -36 6
3 7 2 3 -3 -4 -4 4 -29 17 -55 48 -94 49 -219 4 -315 -50 -106 -164 -189 -279
-202 -66 -7 -152 -56 -200 -113 -18 -22 -36 -37 -40 -35 -14 9 -27 -82 -16
-108 19 -44 210 -185 378 -281 506 -286 1078 -387 1653 -290 585 98 1134 419
1509 884 618 766 727 1812 280 2691 -108 213 -272 444 -433 612 -123 128 -422
362 -449 352 -7 -3 -11 -1 -8 4 3 5 -9 16 -27 25 -17 9 -50 28 -72 41 -39 24
-74 35 -45 14 13 -9 13 -10 0 -6 -8 2 -14 10 -12 16 1 6 -10 16 -25 23 -16 6
-53 24 -84 39 -31 16 -59 26 -62 22 -4 -3 -14 0 -24 8 -14 12 -16 12 -8 0 6
-11 4 -13 -8 -8 -10 4 -24 10 -32 13 -8 3 -15 3 -15 0z m150 -51 c7 -9 8 -15
2 -15 -5 0 -12 7 -16 15 -3 8 -4 15 -2 15 2 0 9 -7 16 -15z m-1317 -2220 c-7
-21 -13 -19 -13 6 0 11 4 18 10 14 5 -3 7 -12 3 -20z m242 -535 c3 -5 1 -10
-4 -10 -6 0 -11 5 -11 10 0 6 2 10 4 10 3 0 8 -4 11 -10z m-1172 -395 c-3 -8
-12 -15 -20 -15 -8 0 -11 5 -7 12 5 8 2 9 -10 5 -10 -4 -15 -3 -11 4 4 5 16 7
27 3 15 -4 18 -3 13 6 -5 8 -4 11 3 6 6 -4 9 -13 5 -21z m77 -49 c0 -2 -8 -10
-17 -17 -16 -13 -17 -12 -4 4 13 16 21 21 21 13z m67 -103 c1 -22 -1 -24 -8
-10 -6 9 -7 22 -4 27 9 14 10 13 12 -17z m-337 -664 c0 -55 -52 -79 -92 -42
-24 22 -23 39 7 69 24 24 26 24 55 9 18 -10 30 -23 30 -36z"/>
<path d="M6250 7940 c8 -5 22 -9 30 -9 10 0 8 3 -5 9 -27 12 -43 12 -25 0z"/>
<path d="M3274 7551 c0 -10 6 -17 12 -14 7 2 15 -1 19 -7 4 -7 -2 -9 -21 -6
-20 4 -31 0 -42 -15 -8 -12 -30 -27 -48 -35 -19 -8 -34 -19 -34 -24 0 -6 -9
-10 -19 -10 -11 0 -41 -15 -67 -32 -57 -41 -55 -39 -136 -78 -37 -17 -70 -35
-73 -40 -4 -6 -13 -10 -22 -10 -8 0 -32 -12 -52 -27 -52 -40 -78 -53 -105 -53
-13 0 -29 -6 -35 -13 -6 -8 -30 -22 -53 -32 -73 -30 -92 -39 -127 -62 -19 -13
-42 -23 -53 -23 -17 0 -66 -26 -78 -41 -3 -3 -26 -6 -51 -5 -48 2 -79 -15 -56
-31 86 -60 131 -65 552 -61 l370 3 55 26 c72 34 140 101 176 175 26 52 29 70
29 149 -1 79 -4 97 -29 147 -33 66 -112 150 -112 119z m-961 -543 c5 -15 -56
-18 -70 -4 -4 5 2 5 15 2 13 -5 22 -3 22 3 0 15 27 14 33 -1z"/>
<path d="M1950 6815 c0 -6 6 -17 13 -24 10 -11 10 -14 0 -18 -7 -3 -13 -14
-13 -25 0 -11 -8 -22 -18 -25 -20 -5 -72 -78 -72 -100 0 -7 -4 -13 -9 -13 -5
0 -13 -10 -17 -22 -8 -27 -105 -124 -133 -133 -12 -3 -21 -10 -21 -15 0 -5
-18 -14 -39 -21 -21 -6 -54 -24 -72 -40 -19 -16 -42 -32 -52 -35 -18 -6 -18
-6 0 -21 10 -8 12 -12 6 -8 -7 3 -13 1 -13 -6 0 -7 -11 -2 -25 11 -14 13 -25
18 -25 12 0 -7 21 -27 48 -47 176 -129 419 -72 518 122 26 53 29 67 29 158 0
84 -4 107 -23 145 -25 49 -81 121 -82 105z"/>
<path d="M6166 6788 c3 -5 10 -6 15 -3 13 9 11 12 -6 12 -8 0 -12 -4 -9 -9z"/>
<path d="M6216 6788 c3 -5 10 -6 15 -3 13 9 11 12 -6 12 -8 0 -12 -4 -9 -9z"/>
<path d="M6180 6761 c-8 -15 -7 -19 5 -17 8 1 21 8 28 15 9 10 8 11 -7 5 -13
-5 -17 -4 -12 4 4 7 5 12 2 12 -3 0 -10 -9 -16 -19z"/>
<path d="M1921 6744 c0 -11 3 -14 6 -6 3 7 2 16 -1 19 -3 4 -6 -2 -5 -13z"/>
<path d="M6150 6678 c-30 -45 -32 -52 -6 -24 14 16 26 33 26 38 0 13 -4 10
-20 -14z"/>
<path d="M6085 6629 c-4 -6 -5 -12 -2 -15 2 -3 7 2 10 11 7 17 1 20 -8 4z"/>
<path d="M6080 6555 c-7 -9 -11 -17 -9 -20 3 -2 10 5 17 15 14 24 10 26 -8 5z"/>
<path d="M3283 6103 c-1 -18 2 -22 7 -12 13 20 19 8 13 -26 -5 -26 -7 -27 -14
-10 -6 17 -8 17 -8 3 -1 -10 -7 -15 -14 -12 -7 2 -26 -7 -43 -21 -16 -14 -33
-25 -38 -25 -4 0 -21 -11 -38 -25 -16 -14 -35 -25 -42 -25 -6 0 -23 -12 -36
-27 -14 -16 -42 -36 -62 -47 -20 -10 -46 -27 -57 -37 -11 -11 -25 -19 -31 -19
-5 0 -10 -4 -10 -10 0 -5 -11 -12 -25 -16 -13 -3 -29 -12 -36 -20 -6 -8 -20
-14 -30 -14 -11 0 -19 -6 -19 -13 0 -14 -60 -47 -84 -47 -8 0 -21 -11 -30 -25
-9 -14 -21 -25 -27 -25 -5 0 -26 -7 -47 -17 -20 -9 -40 -15 -44 -15 -7 2 -12
-13 -9 -30 0 -4 -6 -5 -13 -2 -8 3 -24 0 -36 -6 -16 -9 -25 -9 -36 1 -8 6 -14
9 -14 5 0 -12 81 -56 92 -50 6 4 8 3 5 -3 -14 -23 86 -33 332 -33 232 0 254 2
308 22 73 27 154 102 190 177 25 49 28 68 28 151 0 83 -3 102 -27 150 -15 30
-44 72 -65 92 l-38 37 -2 -26z"/>
<path d="M4971 5847 c-13 -21 -12 -21 5 -5 10 10 16 20 13 22 -3 3 -11 -5 -18
-17z"/>
<path d="M5010 5861 c0 -6 4 -13 10 -16 6 -3 7 1 4 9 -7 18 -14 21 -14 7z"/>
<path d="M5015 5811 c-3 -5 -1 -12 5 -16 5 -3 10 1 10 9 0 18 -6 21 -15 7z"/>
<path d="M5000 5775 c0 -5 9 -23 19 -39 18 -28 19 -28 30 -8 16 29 14 37 -6
21 -15 -12 -16 -12 -10 4 4 12 3 16 -4 11 -6 -4 -15 0 -20 7 -5 8 -9 10 -9 4z"/>
<path d="M2365 5353 c7 -37 -1 -42 -22 -15 -11 13 -13 14 -12 2 2 -23 -12 -60
-23 -60 -5 0 -16 -17 -25 -37 -8 -21 -21 -42 -28 -48 -7 -5 -16 -23 -19 -38
-7 -29 -14 -41 -53 -83 -13 -14 -23 -27 -23 -31 0 -18 -111 -83 -142 -83 -10
0 -18 -4 -18 -8 0 -5 -17 -17 -37 -28 -55 -28 -75 -49 -42 -46 3 1 6 -6 6 -13
0 -12 -3 -12 -16 -2 -9 6 -21 19 -28 27 -8 9 -12 10 -13 3 0 -17 58 -63 110
-87 34 -15 66 -20 135 -21 77 0 98 4 145 26 73 35 136 98 171 173 54 114 35
278 -42 366 l-31 35 7 -32z m-8 -59 c-3 -3 -12 -4 -19 -1 -8 3 -5 6 6 6 11 1
17 -2 13 -5z"/>
<path d="M3500 4920 c6 -11 13 -20 16 -20 2 0 0 9 -6 20 -6 11 -13 20 -16 20
-2 0 0 -9 6 -20z"/>
<path d="M3560 4866 c0 -2 8 -10 18 -17 15 -13 16 -12 3 4 -13 16 -21 21 -21
13z"/>
<path d="M3640 4810 c8 -5 20 -10 25 -10 6 0 3 5 -5 10 -8 5 -19 10 -25 10 -5
0 -3 -5 5 -10z"/>
<path d="M3698 4793 c6 -2 18 -2 25 0 6 3 1 5 -13 5 -14 0 -19 -2 -12 -5z"/>
<path d="M3765 4784 c65 -7 293 -9 277 -2 -9 4 -82 6 -162 6 -80 -1 -131 -3
-115 -4z"/>
<path d="M3447 4719 c7 -7 15 -10 18 -7 3 3 -2 9 -12 12 -14 6 -15 5 -6 -5z"/>
<path d="M3503 4673 c-20 -7 -15 -22 7 -20 20 1 27 12 13 20 -5 2 -14 2 -20 0z"/>
<path d="M3445 4650 c-3 -6 1 -7 9 -4 9 3 16 2 16 -3 0 -5 -25 -20 -55 -33
-30 -13 -55 -28 -55 -32 0 -5 -10 -13 -22 -18 -13 -6 -30 -14 -38 -19 -8 -4
-42 -21 -75 -37 -33 -16 -62 -32 -65 -35 -3 -4 -24 -16 -47 -28 -24 -12 -43
-26 -43 -31 0 -6 -9 -10 -20 -10 -12 0 -31 -9 -43 -21 -12 -11 -34 -23 -49
-26 -15 -3 -33 -12 -39 -19 -6 -8 -24 -14 -39 -14 -15 0 -35 -9 -45 -20 -10
-11 -27 -20 -38 -20 -11 0 -45 -16 -77 -35 -32 -19 -63 -35 -69 -35 -6 0 -11
-5 -11 -11 0 -5 -4 -8 -9 -5 -5 3 -20 -3 -34 -14 -14 -11 -38 -20 -54 -20 -22
0 -25 -2 -13 -10 11 -7 5 -10 -23 -10 -23 0 -36 4 -32 10 4 6 -1 7 -11 3 -13
-5 -10 -10 17 -24 19 -10 27 -18 19 -19 -8 0 -31 10 -50 21 -33 21 -34 21 -17
1 10 -11 44 -30 75 -43 56 -23 66 -23 424 -27 408 -4 449 1 540 59 156 101
204 321 106 481 -29 47 -55 65 -44 31 3 -10 1 -25 -5 -33 -9 -13 -10 -12 -5 3
8 26 -3 45 -24 40 -10 -3 -21 0 -24 6 -9 14 -23 14 -31 1z"/>
</g>
</svg>
